<svg width="17" height="23" viewBox="0 0 17 23" fill="none" xmlns="http://www.w3.org/2000/svg">
<path d="M8.49788 0.961914C4.42821 0.961914 0.724731 5.9845 0.724731 11.4981C0.724731 17.0117 4.42821 22.0343 8.49788 22.0343C12.5676 22.0343 16.271 17.0117 16.271 11.4981C16.271 5.9845 12.5676 0.961914 8.49788 0.961914ZM3.25475 11.4981C3.25475 9.07629 4.19102 6.68359 5.51013 5.15226C5.38529 5.7057 5.31871 6.27579 5.31871 6.85836C5.31871 8.94729 6.13431 10.9114 7.60738 12.3886C9.53819 14.3194 9.66302 17.3779 7.98605 19.4544C5.52261 18.9925 3.25475 15.2807 3.25475 11.4981ZM11.4815 17.8523C12.0474 15.3223 11.3566 12.5676 9.39254 10.6035C7.46174 8.67265 7.3369 5.61416 9.01387 3.53771C11.4732 4.00376 13.7452 7.71557 13.7452 11.4981C13.7452 13.9283 12.8047 16.3251 11.4815 17.8523Z" fill="black"/>
</svg>
