<?xml version="1.0" encoding="UTF-8" standalone="no"?>
<svg
   width="35"
   height="35"
   viewBox="0 0 35 35"
   fill="none"
   version="1.1"
   id="svg4"
   sodipodi:docname="Vector white.svg"
   inkscape:version="1.2.1 (9c6d41e410, 2022-07-14)"
   xmlns:inkscape="http://www.inkscape.org/namespaces/inkscape"
   xmlns:sodipodi="http://sodipodi.sourceforge.net/DTD/sodipodi-0.dtd"
   xmlns="http://www.w3.org/2000/svg"
   xmlns:svg="http://www.w3.org/2000/svg">
  <defs
     id="defs8" />
  <sodipodi:namedview
     id="namedview6"
     pagecolor="#ffffff"
     bordercolor="#000000"
     borderopacity="0.25"
     inkscape:showpageshadow="2"
     inkscape:pageopacity="0.0"
     inkscape:pagecheckerboard="0"
     inkscape:deskcolor="#d1d1d1"
     showgrid="false"
     inkscape:zoom="23.257143"
     inkscape:cx="17.5"
     inkscape:cy="22.896192"
     inkscape:window-width="1920"
     inkscape:window-height="1001"
     inkscape:window-x="-9"
     inkscape:window-y="-9"
     inkscape:window-maximized="1"
     inkscape:current-layer="svg4" />
  <path
     d="M 17.4979,0.04299759 2.4570024e-7,17.540898 17.4979,35.038798 34.9958,17.540898 Z M 3.5703202,17.540898 17.4979,3.6133176 31.4255,17.540898 17.4979,31.468498 Z"
     fill="#ffffff"
     id="path2" />
  <path
     d="m 17.414019,6.8348145 c -4.06967,0 -7.7731488,5.0225855 -7.7731488,10.5361855 0,5.5136 3.7034788,10.5362 7.7731488,10.5362 4.06972,0 7.77312,-5.0226 7.77312,-10.5362 0,-5.5136 -3.7034,-10.5361855 -7.77312,-10.5361855 z M 12.170889,17.371 c 0,-2.42181 0.93627,-4.81451 2.25538,-6.34584 -0.12484,0.55344 -0.19142,1.12353 -0.19142,1.7061 0,2.08893 0.8156,4.05304 2.28867,5.53024 1.93081,1.9308 2.05564,4.9893 0.37867,7.0658 -2.46344,-0.4619 -4.7313,-4.1737 -4.7313,-7.9563 z m 8.22675,6.3542 c 0.5659,-2.53 -0.1249,-5.2847 -2.08896,-7.2488 -1.9308,-1.93085 -2.05564,-4.98934 -0.37867,-7.0657896 2.45933,0.4660499 4.73133,4.1778596 4.73133,7.9603896 0,2.4302 -0.9405,4.827 -2.2637,6.3542 z"
     fill="#ffffff"
     id="path184" />
</svg>
